<?xml version="1.0" encoding="UTF-8" standalone="no"?>
<!DOCTYPE svg PUBLIC "-//W3C//DTD SVG 1.1//EN" "http://www.w3.org/Graphics/SVG/1.1/DTD/svg11.dtd">
<svg version="1.1" xmlns="http://www.w3.org/2000/svg" xmlns:xlink="http://www.w3.org/1999/xlink" preserveAspectRatio="xMidYMid meet" viewBox="0 0 155 155" width="155" height="155"><defs><path d="M78.49 3C36.8 3 3 36.79 3 78.49C3 111.84 24.63 140.13 54.62 150.11C58.39 150.81 59.78 148.47 59.78 146.48C59.78 144.68 59.71 138.73 59.68 132.43C38.68 136.99 34.25 123.52 34.25 123.52C30.81 114.8 25.86 112.48 25.86 112.48C19.02 107.79 26.38 107.89 26.38 107.89C33.96 108.42 37.95 115.67 37.95 115.67C44.68 127.2 55.61 123.87 59.92 121.94C60.6 117.06 62.55 113.73 64.71 111.85C47.94 109.94 30.32 103.47 30.32 74.54C30.32 66.3 33.27 59.57 38.1 54.28C37.31 52.38 34.73 44.7 38.83 34.3C38.83 34.3 45.17 32.28 59.59 42.04C65.61 40.37 72.07 39.53 78.49 39.5C84.9 39.53 91.36 40.37 97.4 42.04C111.8 32.28 118.13 34.3 118.13 34.3C122.24 44.7 119.66 52.38 118.87 54.28C123.71 59.57 126.64 66.3 126.64 74.54C126.64 103.53 108.98 109.92 92.17 111.79C94.88 114.13 97.29 118.72 97.29 125.76C97.29 135.87 97.21 143.99 97.21 146.48C97.21 148.49 98.57 150.84 102.39 150.1C132.37 140.11 153.97 111.82 153.97 78.49C153.97 36.79 120.17 3 78.49 3" id="aTElfLp6h"></path><path d="M31.59 111.38C31.42 111.76 30.83 111.87 30.3 111.61C29.75 111.36 29.44 110.85 29.62 110.48C29.78 110.09 30.37 109.98 30.92 110.24C31.47 110.49 31.78 111 31.59 111.38" id="eiCHyeOMc"></path><path d="M34.65 114.79C34.29 115.12 33.58 114.97 33.11 114.44C32.61 113.92 32.52 113.21 32.89 112.87C33.26 112.54 33.94 112.7 34.43 113.22C34.93 113.75 35.02 114.45 34.65 114.79" id="a1LzMEqeQK"></path><path d="M37.62 119.14C37.16 119.46 36.4 119.16 35.94 118.49C35.47 117.81 35.47 117.01 35.95 116.69C36.42 116.36 37.16 116.66 37.63 117.32C38.1 118 38.1 118.81 37.62 119.14" id="hbcdgQAjk5"></path><path d="M41.7 123.34C41.29 123.79 40.41 123.67 39.76 123.05C39.1 122.44 38.92 121.58 39.33 121.12C39.75 120.66 40.64 120.79 41.29 121.41C41.94 122.02 42.14 122.89 41.7 123.34" id="anVzmFdur"></path><path d="M47.33 125.78C47.14 126.37 46.3 126.64 45.44 126.38C44.59 126.13 44.03 125.43 44.2 124.84C44.38 124.24 45.23 123.96 46.09 124.23C46.94 124.49 47.5 125.18 47.33 125.78" id="a81k7e9pj"></path><path d="M53.51 126.23C53.52 126.85 52.8 127.37 51.9 127.38C51 127.4 50.27 126.89 50.26 126.28C50.26 125.65 50.97 125.14 51.87 125.13C52.77 125.11 53.51 125.61 53.51 126.23" id="awsM8YRfk"></path><path d="M59.25 125.25C59.36 125.86 58.74 126.48 57.84 126.65C56.97 126.81 56.16 126.43 56.05 125.83C55.94 125.21 56.57 124.58 57.45 124.42C58.34 124.27 59.14 124.63 59.25 125.25" id="dZrPMsWBS"></path></defs><g><g><g><use xlink:href="#aTElfLp6h" opacity="1" fill="#1b1817" fill-opacity="1"></use><g><use xlink:href="#aTElfLp6h" opacity="1" fill-opacity="0" stroke="#000000" stroke-width="1" stroke-opacity="0"></use></g></g><g><use xlink:href="#eiCHyeOMc" opacity="1" fill="#1b1817" fill-opacity="1"></use><g><use xlink:href="#eiCHyeOMc" opacity="1" fill-opacity="0" stroke="#000000" stroke-width="1" stroke-opacity="0"></use></g></g><g><use xlink:href="#a1LzMEqeQK" opacity="1" fill="#1b1817" fill-opacity="1"></use><g><use xlink:href="#a1LzMEqeQK" opacity="1" fill-opacity="0" stroke="#000000" stroke-width="1" stroke-opacity="0"></use></g></g><g><use xlink:href="#hbcdgQAjk5" opacity="1" fill="#1b1817" fill-opacity="1"></use><g><use xlink:href="#hbcdgQAjk5" opacity="1" fill-opacity="0" stroke="#000000" stroke-width="1" stroke-opacity="0"></use></g></g><g><use xlink:href="#anVzmFdur" opacity="1" fill="#1b1817" fill-opacity="1"></use><g><use xlink:href="#anVzmFdur" opacity="1" fill-opacity="0" stroke="#000000" stroke-width="1" stroke-opacity="0"></use></g></g><g><use xlink:href="#a81k7e9pj" opacity="1" fill="#1b1817" fill-opacity="1"></use><g><use xlink:href="#a81k7e9pj" opacity="1" fill-opacity="0" stroke="#000000" stroke-width="1" stroke-opacity="0"></use></g></g><g><use xlink:href="#awsM8YRfk" opacity="1" fill="#1b1817" fill-opacity="1"></use><g><use xlink:href="#awsM8YRfk" opacity="1" fill-opacity="0" stroke="#000000" stroke-width="1" stroke-opacity="0"></use></g></g><g><use xlink:href="#dZrPMsWBS" opacity="1" fill="#1b1817" fill-opacity="1"></use><g><use xlink:href="#dZrPMsWBS" opacity="1" fill-opacity="0" stroke="#000000" stroke-width="1" stroke-opacity="0"></use></g></g><path></path><path></path><path></path><path></path><path></path><path></path><path></path><path></path><path></path><path></path><path></path><path></path><path></path><path></path><path></path><path></path><path></path><path></path><path></path><path></path><path></path><path></path><path></path><path></path></g></g></svg>