<?xml version="1.0" encoding="UTF-8" standalone="no"?>
<!DOCTYPE svg PUBLIC "-//W3C//DTD SVG 1.1//EN" "http://www.w3.org/Graphics/SVG/1.1/DTD/svg11.dtd">
<svg version="1.1" xmlns="http://www.w3.org/2000/svg" xmlns:xlink="http://www.w3.org/1999/xlink" preserveAspectRatio="xMidYMid meet" viewBox="0 0 45 45" width="45" height="45"><defs><path d="M22.97 2.14C11.73 2.14 2.61 11.26 2.61 22.5C2.61 31.5 8.44 39.13 16.53 41.82C17.55 42.01 17.92 41.38 17.92 40.84C17.92 40.36 17.91 39.08 17.9 37.38C12.23 38.61 11.04 34.65 11.04 34.65C10.11 32.3 8.78 31.67 8.78 31.67C6.93 30.41 8.92 30.43 8.92 30.43C10.96 30.58 12.04 32.53 12.04 32.53C13.85 35.64 16.8 34.74 17.96 34.22C18.15 32.91 18.67 32.01 19.25 31.5C14.73 30.99 9.98 29.24 9.98 21.44C9.98 19.21 10.77 17.4 12.08 15.97C11.87 15.46 11.17 13.39 12.27 10.59C12.27 10.59 13.98 10.04 17.87 12.67C19.5 12.22 21.24 12 22.97 11.99C24.7 12 26.44 12.22 28.07 12.67C31.96 10.04 33.66 10.59 33.66 10.59C34.77 13.39 34.08 15.46 33.87 15.97C35.17 17.4 35.96 19.21 35.96 21.44C35.96 29.26 31.2 30.98 26.66 31.48C27.39 32.11 28.04 33.36 28.04 35.26C28.04 37.98 28.02 40.17 28.02 40.84C28.02 41.39 28.39 42.02 29.42 41.82C37.5 39.12 43.33 31.5 43.33 22.5C43.33 11.26 34.22 2.14 22.97 2.14" id="a4iSDlMCEH"></path></defs><g><g><g><use xlink:href="#a4iSDlMCEH" opacity="1" fill="#1b1817" fill-opacity="1"></use><g><use xlink:href="#a4iSDlMCEH" opacity="1" fill-opacity="0" stroke="#000000" stroke-width="1" stroke-opacity="0"></use></g></g><path></path><path></path><path></path><path></path><path></path><path></path><path></path><path></path><path></path><path></path><path></path><path></path><path></path><path></path><path></path><path></path><path></path><path></path><path></path><path></path><path></path></g></g></svg>