<?xml version="1.0" encoding="UTF-8" standalone="no"?>
<svg
   xmlns:dc="http://purl.org/dc/elements/1.1/"
   xmlns:cc="http://creativecommons.org/ns#"
   xmlns:rdf="http://www.w3.org/1999/02/22-rdf-syntax-ns#"
   xmlns:svg="http://www.w3.org/2000/svg"
   xmlns="http://www.w3.org/2000/svg"
   viewBox="0 0 355.98267 354.53467"
   height="354.53467"
   width="355.98267"
   xml:space="preserve"
   id="svg2"
   version="1.1"><metadata
     id="metadata8"><rdf:RDF><cc:Work
         rdf:about=""><dc:format>image/svg+xml</dc:format><dc:type
           rdf:resource="http://purl.org/dc/dcmitype/StillImage" /></cc:Work></rdf:RDF></metadata><defs
     id="defs6"><clipPath
       id="clipPath18"
       clipPathUnits="userSpaceOnUse"><path
         id="path16"
         d="m 15.903,131.998 c 0,-65.169 52.83,-117.999 118,-117.999 v 0 c 65.17,0 118,52.83 118,117.999 v 0 c 0,65.17 -52.83,118.001 -118,118.001 v 0 c -65.17,0 -118,-52.831 -118,-118.001" /></clipPath><linearGradient
       id="linearGradient28"
       spreadMethod="pad"
       gradientTransform="matrix(0,236,236,0,133.90297,13.998874)"
       gradientUnits="userSpaceOnUse"
       y2="0"
       x2="1"
       y1="0"
       x1="0"><stop
         id="stop24"
         offset="0"
         style="stop-opacity:1;stop-color:#1d93d2" /><stop
         id="stop26"
         offset="1"
         style="stop-opacity:1;stop-color:#38b0e3" /></linearGradient><clipPath
       id="clipPath38"
       clipPathUnits="userSpaceOnUse"><path
         id="path36"
         d="M 0,265.901 H 266.987 V 0 H 0 Z" /></clipPath><clipPath
       id="clipPath50"
       clipPathUnits="userSpaceOnUse"><path
         id="path48"
         d="M 0,265.901 H 266.987 V 0 H 0 Z" /></clipPath><clipPath
       id="clipPath62"
       clipPathUnits="userSpaceOnUse"><path
         id="path60"
         d="M 0,265.901 H 266.987 V 0 H 0 Z" /></clipPath></defs><g
     transform="matrix(1.3333333,0,0,-1.3333333,0,354.53467)"
     id="g10"><g
       id="g12"><g
         clip-path="url(#clipPath18)"
         id="g14"><g
           id="g20"><g
             id="g22"><path
               id="path30"
               style="fill:url(#linearGradient28);stroke:none"
               d="m 15.903,131.998 c 0,-65.169 52.83,-117.999 118,-117.999 v 0 c 65.17,0 118,52.83 118,117.999 v 0 c 0,65.17 -52.83,118.001 -118,118.001 v 0 c -65.17,0 -118,-52.831 -118,-118.001" /></g></g></g></g><g
       id="g32"><g
         clip-path="url(#clipPath38)"
         id="g34"><g
           transform="translate(95.7777,123.3735)"
           id="g40"><path
             id="path42"
             style="fill:#c8daea;fill-opacity:1;fill-rule:nonzero;stroke:none"
             d="m 0,0 14,-38.75 c 0,0 1.75,-3.625 3.625,-3.625 1.875,0 29.75,29 29.75,29 L 78.375,46.5 0.5,10 Z" /></g></g></g><g
       id="g44"><g
         clip-path="url(#clipPath50)"
         id="g46"><g
           transform="translate(114.3402,113.436)"
           id="g52"><path
             id="path54"
             style="fill:#a9c6d8;fill-opacity:1;fill-rule:nonzero;stroke:none"
             d="m 0,0 -2.688,-28.562 c 0,0 -1.125,-8.751 7.625,0 8.75,8.75 17.125,15.499 17.125,15.499" /></g></g></g><g
       id="g56"><g
         clip-path="url(#clipPath62)"
         id="g58"><g
           transform="translate(96.031,121.9909)"
           id="g64"><path
             id="path66"
             style="fill:#ffffff;fill-opacity:1;fill-rule:nonzero;stroke:none"
             d="m 0,0 -28.795,9.383 c 0,0 -3.437,1.395 -2.333,4.562 0.228,0.653 0.687,1.208 2.062,2.167 6.382,4.447 118.104,44.604 118.104,44.604 0,0 3.155,1.062 5.019,0.356 0.852,-0.323 1.396,-0.688 1.854,-2.021 0.167,-0.485 0.263,-1.516 0.25,-2.542 -0.009,-0.739 -0.1,-1.425 -0.166,-2.5 -0.681,-10.979 -21.04,-92.918 -21.04,-92.918 0,0 -1.218,-4.795 -5.583,-4.958 -1.592,-0.06 -3.524,0.263 -5.834,2.25 -8.565,7.368 -38.172,27.265 -44.713,31.641 -0.369,0.246 -0.474,0.567 -0.537,0.879 -0.092,0.461 0.41,1.034 0.41,1.034 0,0 51.552,45.825 52.924,50.633 0.106,0.373 -0.293,0.557 -0.834,0.396 C 67.364,41.706 8.008,4.225 1.457,0.086 1.074,-0.156 0,0 0,0" /></g></g></g></g></svg>