<?xml version="1.0" encoding="UTF-8" standalone="no"?>
<svg
   xmlns:dc="http://purl.org/dc/elements/1.1/"
   xmlns:cc="http://creativecommons.org/ns#"
   xmlns:rdf="http://www.w3.org/1999/02/22-rdf-syntax-ns#"
   xmlns:svg="http://www.w3.org/2000/svg"
   xmlns="http://www.w3.org/2000/svg"
   viewBox="0 0 81.506668 72"
   height="72"
   width="81.506668"
   xml:space="preserve"
   id="svg2"
   version="1.1"><metadata
     id="metadata8"><rdf:RDF><cc:Work
         rdf:about=""><dc:format>image/svg+xml</dc:format><dc:type
           rdf:resource="http://purl.org/dc/dcmitype/StillImage" /></cc:Work></rdf:RDF></metadata><defs
     id="defs6" /><g
     transform="matrix(1.3333333,0,0,-1.3333333,0,72)"
     id="g10"><g
       transform="scale(0.1)"
       id="g12"><path
         id="path14"
         style="fill:#231f20;fill-opacity:1;fill-rule:nonzero;stroke:none"
         d="m 460.137,79.8555 h -80 V 205.168 c 0,29.891 -0.586,68.328 -41.629,68.328 -41.684,0 -48.039,-32.551 -48.039,-66.172 V 79.8555 H 210.398 V 337.551 h 76.836 v -35.207 h 1.094 c 10.695,20.254 36.828,41.625 75.793,41.625 81.047,0 96.016,-53.36 96.016,-122.77 z M 120.105,372.777 c -25.6714,0 -46.4253,20.813 -46.4253,46.457 0,25.61 20.7539,46.426 46.4253,46.426 25.61,0 46.418,-20.816 46.418,-46.426 0,-25.644 -20.808,-46.457 -46.418,-46.457 z M 160.164,79.8555 H 80.0391 V 337.551 H 160.164 Z M 500.027,540 H 39.8633 C 17.8594,540 0,522.559 0,501.094 V 38.9648 C 0,17.4609 17.8594,0 39.8633,0 H 500.027 c 22.024,0 40,17.4609 40,38.9648 V 501.094 c 0,21.465 -17.976,38.906 -40,38.906" /><path
         id="path16"
         style="fill:#231f20;fill-opacity:1;fill-rule:nonzero;stroke:none"
         d="m 558.652,103.828 h 7.696 V 79.8555 h 4.179 v 23.9725 h 7.676 v 4.18 h -19.551 v -4.18" /><path
         id="path18"
         style="fill:#231f20;fill-opacity:1;fill-rule:nonzero;stroke:none"
         d="M 605.391,108.008 597.18,87.3438 588.977,108.008 H 583.02 V 79.8555 h 4.16 v 21.4215 l 8.613,-21.4215 h 2.781 l 8.614,21.4215 V 79.8555 h 4.16 v 28.1525 h -5.957" /></g></g></svg>